<?xml version="1.0" encoding="UTF-8" standalone="no"?>
<svg xmlns="http://www.w3.org/2000/svg" width="500" height="220" viewBox="0 0 500 220">
  <defs>
    <marker id="arrow" markerWidth="10" markerHeight="7" refX="10" refY="3.5" orient="auto">
      <polygon points="0 0, 10 3.5, 0 7" fill="black" />
    </marker>
    <style>
      .box { fill: #fff; stroke: #000; }
      text { font-family: Arial, sans-serif; font-size: 12px; }
    </style>
  </defs>
  <!-- User Prompt -->
  <rect class="box" x="190" y="20" width="120" height="40" />
  <text x="250" y="45" text-anchor="middle">User Prompt</text>
  <!-- ChatGPT -->
  <rect class="box" x="30" y="100" width="120" height="40" />
  <text x="90" y="125" text-anchor="middle">ChatGPT</text>
  <!-- Gemini -->
  <rect class="box" x="190" y="100" width="120" height="40" />
  <text x="250" y="125" text-anchor="middle">Gemini</text>
  <!-- Claude -->
  <rect class="box" x="350" y="100" width="120" height="40" />
  <text x="410" y="125" text-anchor="middle">Claude</text>
  <!-- Gemini Summary -->
  <rect class="box" x="190" y="180" width="120" height="40" />
  <text x="250" y="205" text-anchor="middle">Gemini Summary</text>
  <!-- Arrows -->
  <line x1="250" y1="60" x2="90" y2="100" stroke="black" marker-end="url(#arrow)" />
  <line x1="250" y1="60" x2="250" y2="100" stroke="black" marker-end="url(#arrow)" />
  <line x1="250" y1="60" x2="410" y2="100" stroke="black" marker-end="url(#arrow)" />

  <line x1="90" y1="140" x2="250" y2="180" stroke="black" marker-end="url(#arrow)" />
  <line x1="250" y1="140" x2="250" y2="180" stroke="black" marker-end="url(#arrow)" />
  <line x1="410" y1="140" x2="250" y2="180" stroke="black" marker-end="url(#arrow)" />
</svg>
